<svg width="46" height="46" viewBox="0 0 46 46" fill="none" xmlns="http://www.w3.org/2000/svg">
<path d="M41.9511 0C42.8375 0.203646 43.6641 0.503125 44.3589 1.11406C46.5271 3.01875 46.5391 6.21719 44.3708 8.19375C41.9151 10.4219 39.4594 12.626 36.9917 14.8302C36.836 14.974 36.6922 15.1057 36.5125 15.2734C36.6922 15.4651 36.836 15.6208 36.9917 15.7766C37.8182 16.7229 37.7703 18.1245 36.9078 18.987C36.0214 19.8615 34.6438 19.8974 33.7094 19.0349C33.3141 18.6755 32.9787 18.2443 32.6432 17.8969C31.0261 19.5021 29.4927 21.0474 27.8755 22.6526C28.6901 23.4432 29.5646 24.2698 30.4031 25.1083C33.386 28.0911 36.3568 31.0859 39.3396 34.0807C39.8787 34.6318 40.0104 35.1708 39.7229 35.7339C39.5193 36.1411 39.1719 36.3448 38.7406 36.4526C36.261 37.0635 33.8412 36.776 31.4813 35.8776C28.6542 34.7995 26.3422 32.9786 24.2219 30.8703C23.4552 30.1036 22.6646 29.337 21.862 28.5344C21.7422 28.6422 21.6224 28.762 21.4906 28.8818C16.9386 33.4339 12.3745 37.974 7.83439 42.538C6.87606 43.4964 5.82189 44.263 4.58804 44.826C3.9771 45.1016 3.39012 45.425 2.77918 45.7245C1.59325 46.2995 0.539079 45.8802 0.0599121 44.6464C0.0479329 44.6104 0.0119954 44.5745 -0.0119629 44.5385C-0.0119629 44.275 -0.0119629 43.9995 -0.0119629 43.724C0.38335 42.9214 0.790641 42.1307 1.162 41.3161C1.737 40.0823 2.5396 39.0161 3.49793 38.0578C8.03804 33.5417 12.5542 29.0016 17.0943 24.4734C17.2141 24.3536 17.3938 24.2818 17.5615 24.174C17.3339 23.9344 17.238 23.8266 17.1422 23.7188C16.3276 22.9042 15.513 22.0896 14.7104 21.263C13.7521 20.2807 13.7521 18.9271 14.6985 17.9208C14.8662 17.7411 15.0698 17.5974 15.1896 17.4057C15.3094 17.2021 15.4651 16.8906 15.3813 16.7229C15.1177 16.124 14.6865 15.6328 14.0396 15.3812C13.213 15.0458 12.3266 14.8062 11.5719 14.351C9.12814 12.8776 7.46304 10.6974 6.26512 8.13385C5.95366 7.46302 5.4745 6.82812 5.03127 6.16927C4.82762 5.86979 4.50418 5.77396 4.15679 5.85781C3.80939 5.94167 3.64168 6.20521 3.60575 6.54062C3.54585 7.01979 3.30627 7.35521 2.85106 7.49896C2.38387 7.64271 2.0245 7.45104 1.6771 7.13958C0.850537 6.3849 0.2396 5.51042 1.62767e-05 4.40833C1.62767e-05 4.04896 1.62767e-05 3.68958 1.62767e-05 3.33021C0.0359538 3.2224 0.0718913 3.1026 0.0958496 2.99479C0.443245 1.68906 1.22189 0.754687 2.4797 0.263542C2.75522 0.155729 3.04272 0.0838542 3.33022 0C3.6896 0 4.04897 0 4.40835 0C5.63022 0.251562 6.49272 1.05417 7.34325 1.91667C12.5781 7.19948 17.825 12.4703 23.0719 17.7411C23.1917 17.8729 23.2755 18.0406 23.3474 18.1484C24.9766 16.5312 26.5099 15.0099 28.1271 13.4047C27.7677 13.0693 27.3724 12.7458 27.025 12.3865C26.1026 11.4281 26.0906 10.0146 26.9771 9.11615C27.8516 8.22969 29.3011 8.20573 30.2714 9.06823C30.4151 9.2 30.5469 9.33177 30.7386 9.49948C30.8344 9.37969 30.9182 9.27187 31.0141 9.17604C33.2422 6.69635 35.4584 4.19271 37.7224 1.74896C38.2136 1.2099 38.8604 0.790625 39.4834 0.407292C39.8307 0.191667 40.2979 0.131771 40.7052 0C41.1125 0 41.5438 0 41.9511 0ZM38.1177 35.0391C31.7209 28.6062 25.3719 22.2214 19.0349 15.8604C17.9807 16.8906 16.9625 17.8969 15.9443 18.9151C15.3813 19.4781 15.3813 19.8135 15.9563 20.4005C18.2084 22.6646 20.4485 24.9286 22.7005 27.1807C24.1261 28.5943 25.5156 30.0437 27.013 31.3734C29.2292 33.338 31.7448 34.7755 34.7396 35.1828C35.8417 35.3266 36.9438 35.3146 38.1177 35.0391ZM35.4584 14.1714C38.1417 11.7516 40.825 9.34375 43.4964 6.92396C44.1193 6.36094 44.4307 5.61823 44.4667 4.76771C44.5146 3.47396 43.7479 2.28802 42.562 1.7849C41.3281 1.26979 39.9625 1.55729 39.0281 2.56354C37.962 3.72552 36.9198 4.89948 35.8776 6.06146C34.524 7.55885 33.1823 9.05625 31.8526 10.5297C33.0625 11.7396 34.2485 12.9375 35.4584 14.1714ZM18.6156 25.1802C18.4839 25.3 18.424 25.3479 18.3761 25.4078C13.6443 30.1396 8.91252 34.8714 4.19272 39.6151C3.76147 40.0464 3.37814 40.5375 3.07866 41.0646C2.55158 41.987 2.09637 42.9453 1.64116 43.9036C1.58127 44.0354 1.59325 44.263 1.66512 44.3708C1.71304 44.4427 1.97658 44.4307 2.09637 44.3708C2.58752 44.1552 3.0547 43.8917 3.54585 43.6641C4.71981 43.113 5.79793 42.4542 6.72033 41.5198C11.2604 36.9437 15.8365 32.3917 20.4005 27.8276C20.5203 27.7078 20.7 27.6359 20.9156 27.4922C20.3287 26.9292 19.8735 26.4979 19.4302 26.0547C19.1667 25.7792 18.9151 25.4917 18.6156 25.1802ZM2.30002 5.54635C3.33022 3.7974 5.43856 3.98906 6.40887 5.41458C6.8521 6.07344 7.30731 6.73229 7.63075 7.43906C8.39741 9.10417 9.40366 10.5896 10.7214 11.8714C11.6797 12.8057 12.8057 13.4766 14.0995 13.8359C14.2313 13.8719 14.4349 13.8599 14.5307 13.788C14.962 13.4167 15.3573 13.0214 15.7886 12.6141C15.6807 12.4823 15.6209 12.4224 15.561 12.3505C12.2307 9.00833 8.91252 5.66615 5.58231 2.32396C5.48647 2.22812 5.39064 2.13229 5.28283 2.06042C4.31252 1.30573 2.91095 1.42552 2.12033 2.33594C1.28179 3.27031 1.35366 4.63594 2.30002 5.54635ZM29.2531 14.6984C27.7078 16.2318 26.1745 17.7651 24.7011 19.2266C25.3959 19.9094 26.1266 20.6281 26.7854 21.275C28.2589 19.8016 29.7922 18.2682 31.2896 16.7708C30.6307 16.088 29.912 15.3693 29.2531 14.6984ZM36.1771 17.3578C35.9735 17.0703 35.8417 16.8068 35.638 16.6031C33.5656 14.5188 31.4932 12.4464 29.4089 10.3859C29.3011 10.2781 29.2052 10.1224 29.0735 10.0984C28.8099 10.0505 28.4865 9.97865 28.2709 10.0865C28.0792 10.1823 27.8636 10.5057 27.8755 10.7094C27.8875 10.9729 28.0672 11.2724 28.2709 11.4641C30.3313 13.5484 32.4156 15.6208 34.488 17.6932C34.6078 17.813 34.7156 17.9807 34.8594 18.0047C35.1229 18.0526 35.4344 18.1005 35.662 18.0047C35.8656 17.9089 35.9854 17.6214 36.1771 17.3578ZM16.9146 13.7401C16.5193 14.0875 16.1479 14.4109 15.7886 14.7344C16.124 15.1297 16.4474 15.501 16.699 15.7885C17.0703 15.4292 17.4656 15.0578 17.8849 14.6625C17.6453 14.4349 17.3818 14.1833 17.1302 13.9437C17.0344 13.8479 16.9505 13.7641 16.9146 13.7401Z" fill="grey"/>
</svg>
