<svg width="12" height="12" viewBox="0 0 12 12" fill="none" xmlns="http://www.w3.org/2000/svg">
<path fill-rule="evenodd" clip-rule="evenodd" d="M1.33833 0.559291C1.12376 0.346821 0.77588 0.346821 0.561315 0.559291C0.346749 0.771762 0.346749 1.11624 0.561315 1.32872L5.27873 6.00007L0.561434 10.6713C0.346868 10.8838 0.346868 11.2283 0.561434 11.4407C0.775999 11.6532 1.12388 11.6532 1.33844 11.4407L6.05575 6.7695L10.6625 11.3312C10.877 11.5437 11.2249 11.5437 11.4395 11.3312C11.654 11.1188 11.654 10.7743 11.4395 10.5618L6.83276 6.00007L11.4396 1.43823C11.6542 1.22576 11.6542 0.881275 11.4396 0.668804C11.225 0.456334 10.8771 0.456334 10.6626 0.668804L6.05575 5.23065L1.33833 0.559291Z" fill="#828282"/>
</svg>
